<svg xmlns="http://www.w3.org/2000/svg" viewBox="0 0 700 120" width="700" height="120">
  <rect width="700" height="120" rx="16" fill="#ffcb05" stroke="#d4a800" stroke-width="2"/>

  <!-- Chip icon -->
  <rect x="25" y="20" width="80" height="80" rx="10" fill="white" stroke="#3a2a00" stroke-width="2" opacity="0.9"/>
  <rect x="38" y="33" width="54" height="54" rx="6" fill="#fff8e7" stroke="#d4a800" stroke-width="1.5"/>
  <!-- Pins -->
  <line x1="48" y1="20" x2="48" y2="10" stroke="#3a2a00" stroke-width="2" opacity="0.5"/>
  <line x1="65" y1="20" x2="65" y2="10" stroke="#3a2a00" stroke-width="2" opacity="0.5"/>
  <line x1="82" y1="20" x2="82" y2="10" stroke="#3a2a00" stroke-width="2" opacity="0.5"/>
  <line x1="48" y1="100" x2="48" y2="110" stroke="#3a2a00" stroke-width="2" opacity="0.5"/>
  <line x1="65" y1="100" x2="65" y2="110" stroke="#3a2a00" stroke-width="2" opacity="0.5"/>
  <line x1="82" y1="100" x2="82" y2="110" stroke="#3a2a00" stroke-width="2" opacity="0.5"/>
  <line x1="25" y1="45" x2="15" y2="45" stroke="#3a2a00" stroke-width="2" opacity="0.5"/>
  <line x1="25" y1="60" x2="15" y2="60" stroke="#3a2a00" stroke-width="2" opacity="0.5"/>
  <line x1="25" y1="75" x2="15" y2="75" stroke="#3a2a00" stroke-width="2" opacity="0.5"/>
  <line x1="105" y1="45" x2="115" y2="45" stroke="#3a2a00" stroke-width="2" opacity="0.5"/>
  <line x1="105" y1="60" x2="115" y2="60" stroke="#3a2a00" stroke-width="2" opacity="0.5"/>
  <line x1="105" y1="75" x2="115" y2="75" stroke="#3a2a00" stroke-width="2" opacity="0.5"/>
  <text x="65" y="64" text-anchor="middle" font-family="'Courier New', monospace" font-size="11" font-weight="700" fill="#3a2a00">FPGA</text>

  <!-- Text -->
  <text x="140" y="35" font-family="'Trebuchet MS', Arial, sans-serif" font-size="18" font-weight="900" fill="#3a2a00" letter-spacing="1">EDGE AI ON ULTRA96 FPGA</text>

  <text x="140" y="58" font-family="Arial, sans-serif" font-size="13" fill="#5a3a00">Train on macOS with <tspan font-weight="800">PyTorch</tspan></text>
  <text x="140" y="78" font-family="Arial, sans-serif" font-size="13" fill="#5a3a00">Synthesise with <tspan font-weight="800">Vitis HLS</tspan> on Windows</text>
  <text x="140" y="98" font-family="Arial, sans-serif" font-size="13" fill="#5a3a00">Deploy <tspan font-weight="800">fixed-point CNNs</tspan> via DMA for real-time inference</text>
</svg>